<svg version="1" xmlns="http://www.w3.org/2000/svg" width="426.667" height="426.667" viewBox="0 0 320.000000 320.000000"><path d="M0 160v160h320V0H0v160zM122.5 36c16.9 4.5 35.6 15.9 48.2 29.4 15.2 16.2 27.3 41 29.9 61.4l.7 5.3-7.3-.3-7.3-.3-2.2-9c-7.8-31.4-22.7-52.5-45-63.7-5-2.6-17.7-7.8-18.9-7.8-.2 0 .3 3.5 1 7.7 2.5 14.3 4.3 33.7 5 54l.7 20.3H110l.7-2.8c.4-1.5.8-14.6.8-29.2 0-21-.4-28.8-1.8-37.5-2.6-16.1-1.9-14.9-8.9-14.1-19.1 2-39.3 15.1-51.6 33.4C41 95.1 35 112.8 35 124.7c0 3.4-.1 3.5-3.2 2.9-1.8-.3-5.3-.8-7.7-1.2l-4.3-.7.6-7.6C24.2 75.6 54.3 42.9 96.7 35c2.6-.5 6.4-1.3 8.3-1.8 1.9-.4 4.9-.5 6.5-.1 1.7.4 6.6 1.7 11 2.9zM30 131.5c34.9 6.2 96.8 7.2 215 3.4 21.7-.7 42.6-1 46.3-.7 7.9.7 10.3 2.1 7.2 4.4-5.2 3.9-16.1 5-62 6.5-20.3.7-37.1 1.3-37.2 1.3-.1.1.3 10.1.9 22.1 1.2 22.6.1 66.9-2.2 86.7-2.5 21.6-9.8 30.6-25.5 31.6-6.4.4-8.8 0-19.1-3.3-13.7-4.3-29.9-10.7-41.1-16.3l-7.8-4 3.5-2.1c1.9-1.1 5-2.1 6.8-2.1 1.8 0 10.1 2.5 18.5 5.6 34.5 12.8 39.6 13.7 45.2 8.1 4-4 6.1-10.5 7.5-23.7 1.4-12.7 2.4-82.2 1.3-93.2l-.8-8.7-55.5-.4c-56.7-.4-66.8-.9-95.4-5l-15.1-2.2-.3-4.8c-.2-2.6.1-4.7.5-4.7s4.6.7 9.3 1.5z"/></svg>